# xmcd CD database file
#
# Track frame offsets:
#	150
#	16842
#	34225
#	47200
#
# Disc length: 875 seconds
#
# Revision: 0
# Processed by: cddbd v1.5PL3 Copyright (c) Steve Scherf et al.
# Submitted via: CDex 1.51
#
DISCID=2a036904
DTITLE=Masayoshi Takanaka - O'HOLY NIGHT
DYEAR=1900
DGENRE=ロック (日本)
TTITLE0=THE CHRISTMAS SONG
TTITLE1=ISLAND CHRISTMAS WISH
TTITLE2=O'HOLY NIGHT
TTITLE3=WHEN YOU WISH UPON A STAR
EXTD=
EXTT0=
EXTT1=
EXTT2=
EXTT3=
PLAYORDER=
